<?xml version="1.0" encoding="utf-8"?><svg viewBox="0 0 70 70" xmlns="http://www.w3.org/2000/svg" xmlns:xlink="http://www.w3.org/1999/xlink"><style>:root>svg{display:none}:root>svg:target{display:block}</style><svg fill="none" viewBox="0 0 9 15" id="$" xmlns="http://www.w3.org/2000/svg">
    <path d="M4.096 14.792V13.56c-1.045-.117-1.872-.49-2.48-1.12-.608-.629-.912-1.429-.912-2.4h1.408c0 .566.165 1.072.496 1.52.341.438.837.72 1.488.848V8.072a7.48 7.48 0 0 0-.24-.064 1.878 1.878 0 0 0-.224-.08c-.864-.298-1.504-.666-1.92-1.104-.416-.448-.624-1.029-.624-1.744-.01-.832.25-1.525.784-2.08.544-.554 1.285-.874 2.224-.96V.744H5.2V2.04c.896.107 1.61.443 2.144 1.008.533.566.805 1.254.816 2.064H6.752c0-.394-.128-.773-.384-1.136-.256-.373-.645-.624-1.168-.752v3.872c.085.022.17.048.256.08.085.032.176.06.272.08a8.175 8.175 0 0 1 1.44.672c.427.256.757.587.992.992.245.406.368.923.368 1.552 0 .502-.123.976-.368 1.424-.245.448-.619.827-1.12 1.136-.49.31-1.104.491-1.84.544v1.216H4.096ZM2.48 4.952c0 .491.144.864.432 1.12.288.246.683.46 1.184.64v-3.52c-.48.075-.87.267-1.168.576-.299.3-.448.694-.448 1.184Zm4.656 5.6c0-.618-.181-1.077-.544-1.376-.363-.298-.827-.544-1.392-.736v4c.619-.074 1.093-.288 1.424-.64.341-.352.512-.768.512-1.248Z" fill="#fff"/>
</svg><svg fill="none" viewBox="0 0 15 19" id="contact--fa-building-o" xmlns="http://www.w3.org/2000/svg">
    <path d="M4.282 13.95v.643a.318.318 0 0 1-.1.231.3.3 0 0 1-.221.09h-.643a.336.336 0 0 1-.231-.09.335.335 0 0 1-.09-.23v-.644a.3.3 0 0 1 .09-.22.317.317 0 0 1 .23-.101h.644c.087 0 .16.033.22.1.067.06.101.134.101.221Zm0-2.571v.643a.318.318 0 0 1-.1.23.3.3 0 0 1-.221.091h-.643a.336.336 0 0 1-.231-.09.335.335 0 0 1-.09-.231v-.643a.3.3 0 0 1 .09-.221.317.317 0 0 1 .23-.1h.644c.087 0 .16.033.22.1.067.06.101.134.101.22Zm2.571 0v.643a.318.318 0 0 1-.1.23.3.3 0 0 1-.221.091h-.643a.336.336 0 0 1-.23-.09.335.335 0 0 1-.091-.231v-.643a.3.3 0 0 1 .09-.221.318.318 0 0 1 .231-.1h.643c.087 0 .16.033.22.1.068.06.101.134.101.22ZM4.282 8.807v.643a.318.318 0 0 1-.1.231.3.3 0 0 1-.221.09h-.643a.335.335 0 0 1-.231-.09.335.335 0 0 1-.09-.23v-.644a.3.3 0 0 1 .09-.22.318.318 0 0 1 .23-.101h.644c.087 0 .16.033.22.1.067.06.101.134.101.221Zm7.714 5.143v.643a.317.317 0 0 1-.1.231.3.3 0 0 1-.221.09h-.643a.336.336 0 0 1-.231-.09.336.336 0 0 1-.09-.23v-.644a.3.3 0 0 1 .09-.22.317.317 0 0 1 .23-.101h.644c.087 0 .16.033.22.1.068.06.101.134.101.221ZM9.425 11.38v.643a.318.318 0 0 1-.1.23.3.3 0 0 1-.222.091h-.642a.336.336 0 0 1-.232-.09.335.335 0 0 1-.09-.231v-.643a.3.3 0 0 1 .09-.221.318.318 0 0 1 .232-.1h.642c.087 0 .161.033.221.1.067.06.1.134.1.22ZM6.853 8.807v.643a.318.318 0 0 1-.1.231.3.3 0 0 1-.221.09h-.643a.335.335 0 0 1-.23-.09.335.335 0 0 1-.091-.23v-.644a.3.3 0 0 1 .09-.22.318.318 0 0 1 .231-.101h.643c.087 0 .16.033.22.1.068.06.101.134.101.221ZM4.282 6.236v.643a.318.318 0 0 1-.1.23.3.3 0 0 1-.221.091h-.643a.335.335 0 0 1-.231-.09.335.335 0 0 1-.09-.231v-.643a.3.3 0 0 1 .09-.221.318.318 0 0 1 .23-.1h.644c.087 0 .16.033.22.1.067.06.101.134.101.22Zm7.714 5.143v.643a.318.318 0 0 1-.1.23.3.3 0 0 1-.221.091h-.643a.336.336 0 0 1-.231-.09.336.336 0 0 1-.09-.231v-.643a.3.3 0 0 1 .09-.221.318.318 0 0 1 .23-.1h.644c.087 0 .16.033.22.1.068.06.101.134.101.22ZM9.425 8.807v.643a.318.318 0 0 1-.1.231.3.3 0 0 1-.222.09h-.642a.335.335 0 0 1-.232-.09.335.335 0 0 1-.09-.23v-.644a.3.3 0 0 1 .09-.22.318.318 0 0 1 .232-.101h.642c.087 0 .161.033.221.1.067.06.1.134.1.221ZM6.853 6.236v.643a.318.318 0 0 1-.1.23.3.3 0 0 1-.221.091h-.643a.335.335 0 0 1-.23-.09.335.335 0 0 1-.091-.231v-.643a.3.3 0 0 1 .09-.221.318.318 0 0 1 .231-.1h.643c.087 0 .16.033.22.1.068.06.101.134.101.22ZM4.282 3.664v.643a.318.318 0 0 1-.1.231.3.3 0 0 1-.221.09h-.643a.335.335 0 0 1-.231-.09.335.335 0 0 1-.09-.23v-.644a.3.3 0 0 1 .09-.22.318.318 0 0 1 .23-.101h.644c.087 0 .16.034.22.1.067.06.101.134.101.221Zm7.714 5.143v.643a.317.317 0 0 1-.1.231.3.3 0 0 1-.221.09h-.643a.335.335 0 0 1-.231-.09.336.336 0 0 1-.09-.23v-.644a.3.3 0 0 1 .09-.22.318.318 0 0 1 .23-.101h.644c.087 0 .16.033.22.1.068.06.101.134.101.221ZM9.425 6.236v.643a.318.318 0 0 1-.1.23.3.3 0 0 1-.222.091h-.642a.335.335 0 0 1-.232-.09.335.335 0 0 1-.09-.231v-.643a.3.3 0 0 1 .09-.221.318.318 0 0 1 .232-.1h.642c.087 0 .161.033.221.1.067.06.1.134.1.22ZM6.853 3.664v.643a.318.318 0 0 1-.1.231.3.3 0 0 1-.221.09h-.643a.335.335 0 0 1-.23-.09.335.335 0 0 1-.091-.23v-.644a.3.3 0 0 1 .09-.22.318.318 0 0 1 .231-.101h.643c.087 0 .16.034.22.1.068.06.101.134.101.221Zm5.143 2.572v.643a.317.317 0 0 1-.1.23.3.3 0 0 1-.221.091h-.643a.335.335 0 0 1-.231-.09.336.336 0 0 1-.09-.231v-.643a.3.3 0 0 1 .09-.221.318.318 0 0 1 .23-.1h.644c.087 0 .16.033.22.1.068.06.101.134.101.22ZM9.425 3.664v.643a.318.318 0 0 1-.1.231.3.3 0 0 1-.222.09h-.642a.335.335 0 0 1-.232-.09.335.335 0 0 1-.09-.23v-.644a.3.3 0 0 1 .09-.22.318.318 0 0 1 .232-.101h.642c.087 0 .161.034.221.1.067.06.1.134.1.221Zm2.571 0v.643a.317.317 0 0 1-.1.231.3.3 0 0 1-.221.09h-.643a.335.335 0 0 1-.231-.09.336.336 0 0 1-.09-.23v-.644a.3.3 0 0 1 .09-.22.318.318 0 0 1 .23-.101h.644c.087 0 .16.034.22.1.068.06.101.134.101.221ZM9.425 17.486h3.857V2.057H1.71v15.429h3.857v-2.25a.3.3 0 0 1 .09-.221.318.318 0 0 1 .231-.1h3.214c.087 0 .161.033.221.1.067.06.1.134.1.22v2.25Zm5.143-16.072V18.13a.618.618 0 0 1-.191.452.618.618 0 0 1-.452.19H1.068a.618.618 0 0 1-.452-.19.618.618 0 0 1-.191-.452V1.414c0-.174.063-.324.19-.452a.618.618 0 0 1 .453-.19h12.857c.174 0 .325.063.452.19.127.128.19.278.19.452Z" fill="#fff"/>
</svg><svg fill="none" viewBox="0 0 19 15" id="contact--fa-envelope" xmlns="http://www.w3.org/2000/svg">
    <path d="M18.5 4.903v7.976c0 .442-.157.82-.472 1.135a1.548 1.548 0 0 1-1.135.472H2.107c-.442 0-.82-.158-1.135-.472A1.548 1.548 0 0 1 .5 12.879V4.903c.295.328.633.62 1.015.874C3.939 7.425 5.603 8.58 6.507 9.243c.381.28.69.502.924.663.24.154.559.314.954.482.395.16.763.24 1.105.24h.02c.342 0 .71-.08 1.105-.24a6.07 6.07 0 0 0 .944-.482c.241-.161.553-.382.934-.663 1.139-.824 2.806-1.98 5.002-3.466a5.539 5.539 0 0 0 1.005-.874Zm0-2.953c0 .53-.164 1.035-.492 1.517a4.776 4.776 0 0 1-1.226 1.235 7628.087 7628.087 0 0 0-4.7 3.265c-.068.047-.212.15-.432.311-.215.154-.396.282-.543.382-.14.094-.315.2-.522.321-.201.121-.392.211-.573.272-.18.06-.348.09-.502.09h-.02c-.154 0-.321-.03-.502-.09s-.375-.151-.583-.272c-.2-.12-.375-.227-.522-.321-.14-.1-.322-.228-.543-.382-.214-.16-.355-.264-.421-.311a386.53 386.53 0 0 0-2.632-1.828 601.036 601.036 0 0 1-2.06-1.437c-.414-.28-.806-.666-1.175-1.155C.684 3.052.5 2.593.5 2.171c0-.522.137-.957.412-1.306.281-.348.68-.522 1.195-.522h14.786c.435 0 .81.157 1.125.472.321.315.482.693.482 1.135Z" fill="#fff"/>
</svg><svg fill="none" viewBox="0 0 15 15" id="contact--fa-phone" xmlns="http://www.w3.org/2000/svg">
    <path d="M14.568 11.227c0 .18-.034.418-.1.713a4.01 4.01 0 0 1-.212.683c-.14.335-.549.69-1.225 1.065-.63.341-1.252.512-1.869.512-.18 0-.358-.01-.532-.03a4.98 4.98 0 0 1-.582-.13c-.208-.06-.365-.108-.473-.141-.1-.04-.284-.11-.552-.211-.268-.1-.432-.16-.492-.18a9.1 9.1 0 0 1-1.758-.835c-.85-.529-1.734-1.252-2.652-2.17-.917-.917-1.64-1.8-2.17-2.651a9.097 9.097 0 0 1-.833-1.758A32.424 32.424 0 0 0 .726 5.05a26.24 26.24 0 0 1-.14-.472 4.963 4.963 0 0 1-.131-.582 4.641 4.641 0 0 1-.03-.533c0-.616.17-1.238.512-1.868C1.312.918 1.667.51 2.002.37a4.01 4.01 0 0 1 .683-.211c.294-.067.532-.1.713-.1.094 0 .164.01.211.03.12.04.298.294.532.763.074.127.174.308.302.542.127.235.244.449.351.643.107.188.211.365.312.532.02.027.077.111.17.252.1.14.174.26.221.361.047.094.07.188.07.281 0 .134-.096.302-.29.503-.188.2-.396.385-.623.552a6.854 6.854 0 0 0-.623.533c-.188.187-.281.341-.281.462 0 .06.016.137.05.23.033.088.06.155.08.202l.14.24c.074.114.115.178.121.191.51.918 1.092 1.705 1.748 2.36.656.657 1.443 1.24 2.36 1.749.014.006.078.047.191.12.114.067.195.114.242.14.046.02.113.048.2.081a.72.72 0 0 0 .231.05c.121 0 .275-.093.462-.28.188-.195.365-.403.533-.624.167-.227.351-.435.552-.622.201-.195.369-.292.502-.292.094 0 .188.024.282.07.1.048.22.121.361.222.141.093.225.15.252.17.167.1.344.205.532.312.194.107.408.224.643.351.234.128.415.228.542.302.469.234.723.412.764.532.02.047.03.117.03.211Z" fill="#fff"/>
</svg><svg fill="none" viewBox="0 0 21 14" id="fa-behance" xmlns="http://www.w3.org/2000/svg">
    <path d="M18.563 1.177H13.43v1.245h5.133V1.177ZM16.03 5.456c-.602 0-1.091.177-1.466.532-.375.348-.583.824-.623 1.426h4.098c-.12-1.306-.79-1.958-2.009-1.958Zm.161 5.876c.422 0 .83-.107 1.225-.322.395-.214.65-.505.764-.874h2.22c-.67 2.056-2.1 3.084-4.29 3.084-1.432 0-2.574-.442-3.425-1.326-.843-.884-1.265-2.046-1.265-3.485 0-1.393.435-2.548 1.306-3.466.877-.924 2.005-1.386 3.385-1.386.924 0 1.727.228 2.41.683a4.168 4.168 0 0 1 1.537 1.798c.342.743.512 1.574.512 2.491 0 .114-.006.271-.02.472h-6.609c0 .744.19 1.32.572 1.728.389.402.948.603 1.678.603Zm-13.41-.503h2.974c1.372 0 2.059-.559 2.059-1.677 0-1.205-.667-1.808-2-1.808H2.783v3.485Zm0-5.394h2.823c.522 0 .934-.12 1.235-.361.308-.248.462-.63.462-1.145 0-.964-.636-1.447-1.908-1.447H2.782v2.954ZM0 .324h5.967c.582 0 1.101.047 1.556.14.456.094.878.255 1.266.483.395.22.696.542.904.964.214.422.322.937.322 1.547 0 1.212-.576 2.092-1.728 2.641.763.215 1.34.6 1.727 1.156.389.555.583 1.238.583 2.049 0 .502-.084.96-.251 1.376-.16.408-.382.753-.663 1.034a3.716 3.716 0 0 1-.984.714 4.752 4.752 0 0 1-1.216.421c-.428.087-.877.131-1.346.131H0V.323Z" fill="#fff"/>
</svg><svg fill="none" viewBox="0 0 44 35" id="fa-diamond" xmlns="http://www.w3.org/2000/svg">
    <path d="M5.448 13.486 18.52 27.438l-6.295-13.954H5.448Zm17.037 16.197 7.323-16.197H15.163l7.322 16.197ZM12.288 10.8l4.28-8.057h-5.497L5.03 10.8h7.26Zm14.163 16.639 13.072-13.954h-6.777L26.45 27.44Zm-11.12-16.64h14.31L25.36 2.744h-5.749l-4.28 8.057Zm17.352 0h7.26L33.9 2.744h-5.498l4.28 8.057ZM35.64.604l8.057 10.742c.196.252.287.546.273.882a1.27 1.27 0 0 1-.357.839L23.472 34.55c-.252.28-.58.42-.987.42-.405 0-.734-.14-.986-.42L1.357 13.066a1.27 1.27 0 0 1-.357-.84c-.014-.335.077-.629.273-.88L9.33.602c.252-.364.608-.546 1.07-.546H34.57c.462 0 .818.182 1.07.546Z" fill="#fff"/>
</svg><svg fill="none" viewBox="0 0 16 16" id="fa-dribbble" xmlns="http://www.w3.org/2000/svg">
    <path d="M10.286 13.839c-.281-1.614-.75-3.282-1.407-5.003h-.02l-.02.01c-.107.04-.25.098-.432.171-.18.067-.519.231-1.014.492-.496.255-.954.53-1.376.824-.422.288-.86.67-1.316 1.145-.455.476-.8.971-1.035 1.487l-.15-.11c1.232 1.004 2.631 1.506 4.198 1.506.884 0 1.741-.174 2.572-.522ZM8.427 7.74c-.14-.328-.318-.7-.532-1.114-2.082.622-4.336.934-6.76.934-.007.047-.01.117-.01.21 0 .831.147 1.625.442 2.381.295.75.71 1.423 1.246 2.02a8.396 8.396 0 0 1 1.235-1.668c.496-.523.974-.941 1.436-1.256.462-.315.898-.586 1.306-.813.415-.228.75-.389 1.005-.483l.371-.13.13-.03c.061-.02.105-.037.131-.05ZM7.353 5.612a34.563 34.563 0 0 0-2.451-3.797 6.501 6.501 0 0 0-2.35 1.868 6.51 6.51 0 0 0-1.286 2.733c2.022 0 4.051-.268 6.087-.804Zm6.87 3.204c-1.406-.402-2.776-.499-4.108-.291.582 1.6 1.011 3.17 1.286 4.71a6.605 6.605 0 0 0 1.858-1.897c.495-.77.817-1.611.964-2.522ZM6.137 1.373c-.006 0-.013.004-.02.01.007-.006.014-.01.02-.01Zm5.927 1.457c-1.24-1.099-2.689-1.648-4.35-1.648-.509 0-1.028.064-1.557.191A28.669 28.669 0 0 1 8.628 5.21a9.71 9.71 0 0 0 1.306-.602c.409-.235.73-.442.964-.623.242-.181.463-.372.663-.573.201-.2.325-.335.372-.402.054-.073.097-.133.13-.18Zm2.24 4.871c-.02-1.553-.52-2.926-1.497-4.118l-.01.01-.191.251c-.067.08-.214.228-.442.442a7.956 7.956 0 0 1-.713.613c-.248.187-.583.405-1.005.653-.415.24-.853.455-1.315.643.167.355.314.673.442.954.013.033.033.09.06.17.033.081.06.138.08.171.241-.033.489-.057.744-.07.26-.013.508-.02.743-.02.234 0 .465.007.693.02.227.007.442.02.643.04.2.014.388.03.562.05.181.02.342.044.482.07.148.02.272.04.372.061.1.013.184.027.251.04l.1.02Zm.09-3.797a7.52 7.52 0 0 1 1.035 3.868c0 1.4-.345 2.692-1.035 3.877a7.68 7.68 0 0 1-2.813 2.802 7.52 7.52 0 0 1-3.867 1.035c-1.4 0-2.692-.345-3.877-1.035a7.703 7.703 0 0 1-2.802-2.802A7.573 7.573 0 0 1 0 7.772c0-1.4.345-2.689 1.035-3.868a7.68 7.68 0 0 1 2.802-2.812A7.573 7.573 0 0 1 7.714.057c1.4 0 2.689.345 3.867 1.035a7.657 7.657 0 0 1 2.813 2.812Z" fill="#fff"/>
</svg><svg fill="none" viewBox="0 0 17 16" id="socials--fa-dribbble" xmlns="http://www.w3.org/2000/svg">
    <path d="M11.069 13.839c-.281-1.614-.75-3.282-1.406-5.003h-.02l-.02.01c-.108.04-.252.098-.432.171-.181.067-.52.231-1.015.492-.495.255-.954.53-1.376.824-.422.288-.86.67-1.316 1.145-.455.476-.8.971-1.035 1.487l-.15-.11C5.53 13.858 6.93 14.36 8.497 14.36c.884 0 1.742-.174 2.572-.522ZM9.21 7.74c-.141-.328-.318-.7-.533-1.114-2.082.622-4.336.934-6.76.934-.006.047-.01.117-.01.21 0 .831.148 1.625.442 2.381.295.75.71 1.423 1.246 2.02a8.397 8.397 0 0 1 1.235-1.668c.496-.523.975-.941 1.437-1.256.462-.315.897-.586 1.305-.813.416-.228.75-.389 1.005-.483l.372-.13.13-.03c.06-.02.104-.037.13-.05ZM8.136 5.612a34.562 34.562 0 0 0-2.451-3.797 6.501 6.501 0 0 0-2.35 1.868 6.51 6.51 0 0 0-1.286 2.733c2.022 0 4.051-.268 6.087-.804Zm6.87 3.204c-1.406-.402-2.775-.499-4.108-.291.583 1.6 1.011 3.17 1.286 4.71a6.605 6.605 0 0 0 1.858-1.897c.496-.77.817-1.611.964-2.522ZM6.92 1.373c-.006 0-.013.004-.02.01.007-.006.014-.01.02-.01Zm5.927 1.457c-1.239-1.099-2.689-1.648-4.35-1.648-.508 0-1.027.064-1.556.191A28.669 28.669 0 0 1 9.41 5.21a9.711 9.711 0 0 0 1.306-.602 8.77 8.77 0 0 0 .965-.623c.24-.181.462-.372.663-.573.2-.2.324-.335.371-.402.054-.073.097-.133.13-.18Zm2.24 4.871c-.02-1.553-.52-2.926-1.497-4.118l-.01.01-.19.251c-.068.08-.215.228-.443.442a7.956 7.956 0 0 1-.713.613c-.248.187-.582.405-1.004.653-.415.24-.854.455-1.316.643.167.355.315.673.442.954.013.033.033.09.06.17.034.081.06.138.08.171.241-.033.49-.057.744-.07.26-.013.509-.02.743-.02.234 0 .465.007.693.02.228.007.442.02.643.04.2.014.388.03.562.05.181.02.342.044.483.07.147.02.27.04.371.061.1.013.184.027.251.04l.1.02Zm.09-3.797a7.52 7.52 0 0 1 1.035 3.868c0 1.4-.345 2.692-1.035 3.877a7.68 7.68 0 0 1-2.812 2.802 7.52 7.52 0 0 1-3.868 1.035c-1.4 0-2.691-.345-3.877-1.035a7.703 7.703 0 0 1-2.802-2.802A7.573 7.573 0 0 1 .783 7.772c0-1.4.345-2.689 1.035-3.868A7.68 7.68 0 0 1 4.62 1.092 7.573 7.573 0 0 1 8.497.057c1.4 0 2.69.345 3.868 1.035a7.657 7.657 0 0 1 2.812 2.812Z" fill="#fff"/>
</svg><svg fill="none" viewBox="0 0 10 18" id="socials--fa-facebook-square" xmlns="http://www.w3.org/2000/svg">
    <path d="M9.633.892v2.652H8.056c-.576 0-.964.12-1.165.362-.201.24-.302.602-.302 1.084V6.89h2.943l-.391 2.973H6.589v7.624H3.516V9.862H.954V6.889h2.562v-2.19c0-1.245.348-2.21 1.044-2.893.697-.69 1.624-1.034 2.783-1.034.984 0 1.747.04 2.29.12Z" fill="#fff"/>
</svg><svg fill="none" viewBox="0 0 17 19" id="socials--fa-git" xmlns="http://www.w3.org/2000/svg">
    <path d="M5.477 15.98c0-.67-.553-1.005-1.658-1.005-1.058 0-1.587.348-1.587 1.044 0 .677.576 1.015 1.728 1.015 1.011 0 1.517-.352 1.517-1.055Zm-.593-7.584c0-.409-.1-.75-.301-1.025-.201-.275-.5-.412-.894-.412-.83 0-1.246.486-1.246 1.457 0 .904.415 1.356 1.246 1.356.796 0 1.195-.46 1.195-1.376ZM7.586 5.14v2.03c-.241.08-.506.153-.794.22.108.288.161.57.161.844 0 .85-.244 1.577-.733 2.18-.489.596-1.149.97-1.979 1.125-.268.053-.469.144-.603.27-.127.128-.19.322-.19.583 0 .208.073.382.22.523.155.133.349.24.583.321.241.074.506.147.794.221.288.067.576.15.863.251.288.1.55.228.784.382.241.147.435.361.583.643.154.274.23.602.23.984 0 2.036-1.215 3.054-3.646 3.054-.462 0-.897-.044-1.305-.131a4.238 4.238 0 0 1-1.166-.412 2.178 2.178 0 0 1-.884-.823c-.214-.355-.321-.78-.321-1.276 0-1.105.61-1.858 1.828-2.26v-.04c-.449-.275-.673-.697-.673-1.266 0-.73.211-1.189.633-1.376v-.04c-.482-.161-.884-.523-1.205-1.085C.45 9.493.294 8.938.294 8.396c0-.931.318-1.705.954-2.32.636-.624 1.423-.935 2.36-.935.643 0 1.24.157 1.788.472.656 0 1.386-.157 2.19-.472Zm3.194 8.85H8.55c.027-.302.04-.75.04-1.347V6.527c0-.63-.013-1.058-.04-1.286h2.23c-.027.221-.04.637-.04 1.246v6.157c0 .596.013 1.045.04 1.346Zm6.037-2.23v1.968c-.476.261-1.058.392-1.748.392-.415 0-.773-.067-1.075-.2a1.9 1.9 0 0 1-.703-.503 2.268 2.268 0 0 1-.402-.784 4.89 4.89 0 0 1-.18-.924c-.027-.294-.04-.64-.04-1.034V7.15h.02v-.04c-.047 0-.11-.004-.191-.01-.08-.007-.14-.01-.181-.01-.14 0-.338.02-.593.06V5.241h.965v-.763c0-.362-.02-.66-.06-.894h2.28c-.04.275-.06.827-.06 1.657h1.717V7.15c-.1 0-.248-.007-.442-.02a6.483 6.483 0 0 0-.422-.02h-.854v3.666c0 .877.291 1.316.874 1.316.409 0 .774-.11 1.095-.332ZM10.639 1.223c.262.294.392.636.392 1.024 0 .389-.13.73-.392 1.025a1.251 1.251 0 0 1-.964.432c-.388 0-.716-.144-.984-.432a1.477 1.477 0 0 1-.402-1.025c0-.395.13-.74.392-1.034.268-.295.6-.442.994-.442.389 0 .71.15.964.452Z" fill="#fff"/>
</svg><svg fill="none" viewBox="0 0 24 16" id="socials--fa-google-plus" xmlns="http://www.w3.org/2000/svg">
    <path d="M14.434 7.942c0 1.393-.291 2.635-.874 3.727a6.275 6.275 0 0 1-2.49 2.541c-1.079.616-2.314.924-3.707.924a7.223 7.223 0 0 1-2.863-.582 7.375 7.375 0 0 1-2.35-1.567 7.373 7.373 0 0 1-1.567-2.35A7.223 7.223 0 0 1 0 7.771c0-.998.194-1.952.583-2.863.388-.91.91-1.694 1.567-2.35A7.373 7.373 0 0 1 4.5.99 7.223 7.223 0 0 1 7.363.41c1.915 0 3.559.643 4.932 1.928l-2 1.919c-.783-.757-1.76-1.135-2.932-1.135-.824 0-1.587.208-2.29.623A4.582 4.582 0 0 0 3.415 5.44a4.59 4.59 0 0 0-.613 2.33 4.645 4.645 0 0 0 2.27 4.029 4.425 4.425 0 0 0 2.29.622c.557 0 1.065-.077 1.528-.23.468-.155.853-.346 1.155-.573.301-.235.562-.5.783-.794.228-.294.392-.572.492-.834.107-.26.181-.508.221-.743H7.363V6.717h6.95c.081.422.121.83.121 1.225Zm8.709-1.225v2.11h-2.1v2.099h-2.109v-2.1h-2.1v-2.11h2.1V4.619h2.11v2.099h2.099Z" fill="#fff"/>
</svg><svg fill="none" viewBox="0 0 16 16" id="socials--fa-instagram" xmlns="http://www.w3.org/2000/svg">
    <path d="M9.816 9.59a2.477 2.477 0 0 0 .753-1.818c0-.71-.251-1.316-.753-1.818A2.477 2.477 0 0 0 7.997 5.2c-.71 0-1.315.251-1.818.754a2.477 2.477 0 0 0-.753 1.818c0 .71.251 1.315.753 1.818a2.478 2.478 0 0 0 1.818.753c.71 0 1.316-.251 1.819-.753Zm.984-4.62c.77.77 1.155 1.703 1.155 2.802 0 1.098-.385 2.032-1.155 2.802S9.096 11.73 7.997 11.73c-1.098 0-2.032-.385-2.802-1.155S4.04 8.87 4.04 7.772c0-1.099.385-2.033 1.155-2.803s1.704-1.155 2.802-1.155c1.099 0 2.033.385 2.803 1.155ZM12.769 3a.89.89 0 0 1 .27.653.89.89 0 0 1-.27.653.89.89 0 0 1-.653.271.89.89 0 0 1-.653-.27.89.89 0 0 1-.271-.654.89.89 0 0 1 .27-.653.89.89 0 0 1 .654-.27.89.89 0 0 1 .653.27ZM8.76 1.444H7.224a26.99 26.99 0 0 0-1.055 0c-.24 0-.565.01-.974.03a7.028 7.028 0 0 0-1.035.1 3.795 3.795 0 0 0-.713.18c-.335.135-.63.329-.884.583-.254.255-.448.55-.582.884a4.28 4.28 0 0 0-.191.724c-.047.28-.08.626-.1 1.034-.014.402-.024.723-.03.965v1.064l.01.764-.01.773V9.6c.006.24.016.566.03.974.02.402.053.747.1 1.035.053.28.117.519.19.713.135.335.329.63.583.884.255.254.55.448.884.582.194.074.432.138.713.191.288.047.633.08 1.035.1.409.014.733.024.974.03h1.055l.773-.01.764.01h1.065c.24-.006.562-.016.964-.03.408-.02.753-.053 1.035-.1.287-.053.529-.117.723-.19.335-.135.63-.329.884-.583.254-.255.448-.55.582-.884.074-.194.134-.432.181-.713.054-.288.087-.633.1-1.035.02-.408.03-.733.03-.974a26.99 26.99 0 0 0 0-1.055V7.008c.007-.469.007-.823 0-1.064 0-.242-.01-.563-.03-.965a6.84 6.84 0 0 0-.1-1.034 3.775 3.775 0 0 0-.18-.724 2.605 2.605 0 0 0-.583-.884 2.606 2.606 0 0 0-.884-.582 3.784 3.784 0 0 0-.723-.18 6.845 6.845 0 0 0-1.035-.101c-.402-.02-.723-.03-.964-.03a27.478 27.478 0 0 0-1.065 0Zm6.9 3.143c.034.59.05 1.651.05 3.185 0 1.533-.016 2.595-.05 3.184-.066 1.393-.482 2.47-1.245 3.234-.763.764-1.841 1.179-3.234 1.246-.59.033-1.651.05-3.185.05-1.533 0-2.594-.017-3.184-.05-1.393-.067-2.47-.482-3.234-1.246C.816 13.427.4 12.35.333 10.956c-.033-.59-.05-1.65-.05-3.184 0-1.534.017-2.595.05-3.185C.4 3.195.816 2.117 1.58 1.353 2.342.59 3.42.175 4.813.108c.59-.034 1.651-.05 3.184-.05 1.534 0 2.595.016 3.185.05 1.393.067 2.47.482 3.234 1.245.763.763 1.179 1.842 1.246 3.234Z" fill="#fff"/>
</svg><svg fill="none" viewBox="0 0 19 16" id="socials--fa-medium" xmlns="http://www.w3.org/2000/svg">
    <path d="M6.497 3v11.783a.674.674 0 0 1-.13.422c-.081.12-.202.18-.363.18a.733.733 0 0 1-.331-.08l-4.67-2.34a.894.894 0 0 1-.362-.332.934.934 0 0 1-.141-.472V.711C.5.575.533.461.6.368a.336.336 0 0 1 .292-.14c.093 0 .24.05.442.15L6.467 2.95c.02.02.03.037.03.05Zm.643 1.015 5.363 8.699-5.363-2.672V4.015Zm11.36.18v10.588a.566.566 0 0 1-.14.402.481.481 0 0 1-.382.16.948.948 0 0 1-.472-.13l-4.43-2.21 5.424-8.81Zm-.03-1.205c0 .02-.86 1.427-2.582 4.22a3300.04 3300.04 0 0 1-3.013 4.89L8.958 5.734 12.212.439a.57.57 0 0 1 .522-.281c.094 0 .181.02.261.06L18.43 2.93c.026.013.04.034.04.06Z" fill="#fff"/>
</svg><svg fill="none" viewBox="0 0 17 16" id="socials--fa-skype" xmlns="http://www.w3.org/2000/svg">
    <path d="M12.566 9.45c0-.336-.067-.64-.201-.915a2.134 2.134 0 0 0-.482-.693 3.11 3.11 0 0 0-.734-.492 5.494 5.494 0 0 0-.833-.342c-.255-.08-.546-.157-.874-.23l-1.045-.242c-.2-.047-.348-.08-.442-.1a4.495 4.495 0 0 1-.351-.12 1.01 1.01 0 0 1-.302-.162.936.936 0 0 1-.17-.21.626.626 0 0 1-.07-.302c0-.515.481-.773 1.446-.773.287 0 .545.04.773.12.228.08.408.178.542.292.134.107.261.217.382.331.12.114.255.211.402.291a.99.99 0 0 0 .482.12c.315 0 .566-.106.753-.32.195-.215.292-.473.292-.774 0-.368-.188-.7-.563-.994-.375-.302-.85-.53-1.426-.683a7.05 7.05 0 0 0-1.828-.231c-.456 0-.898.053-1.326.16-.429.1-.83.258-1.206.472a2.43 2.43 0 0 0-.894.874c-.22.369-.331.797-.331 1.286 0 .408.064.767.19 1.075.128.301.316.552.563.753.248.2.516.365.804.492.288.12.633.228 1.035.322l1.466.361c.603.148.978.268 1.125.362.214.134.322.335.322.603 0 .26-.134.478-.402.652-.268.168-.62.252-1.055.252-.342 0-.65-.054-.924-.161a2.241 2.241 0 0 1-.653-.382c-.16-.154-.311-.305-.452-.452a2.314 2.314 0 0 0-.462-.392.988.988 0 0 0-.543-.16c-.334 0-.589.1-.763.301-.167.2-.251.452-.251.753 0 .617.408 1.146 1.225 1.587.817.436 1.792.653 2.923.653.49 0 .958-.06 1.407-.18a4.61 4.61 0 0 0 1.225-.543 2.6 2.6 0 0 0 .894-.934 2.67 2.67 0 0 0 .332-1.326Zm3.646 2.179a3.692 3.692 0 0 1-1.135 2.722 3.691 3.691 0 0 1-2.722 1.135c-.87 0-1.654-.268-2.35-.804a7.394 7.394 0 0 1-1.508.161 6.93 6.93 0 0 1-2.752-.562 7.12 7.12 0 0 1-2.26-1.497 7.26 7.26 0 0 1-1.506-2.26 7.04 7.04 0 0 1-.553-2.752c0-.49.054-.991.16-1.507a3.757 3.757 0 0 1-.803-2.35c0-1.065.375-1.973 1.125-2.723C2.665.436 3.576.057 4.64.057c.87 0 1.654.268 2.35.804A7.397 7.397 0 0 1 8.498.7a6.86 6.86 0 0 1 2.743.562c.877.368 1.63.87 2.26 1.506a6.89 6.89 0 0 1 1.506 2.26 6.86 6.86 0 0 1 .563 2.743 7.4 7.4 0 0 1-.16 1.506c.535.697.803 1.48.803 2.35Z" fill="#fff"/>
</svg><svg fill="none" viewBox="0 0 17 14" id="socials--fa-twitter" xmlns="http://www.w3.org/2000/svg">
    <path d="M16.272 1.87a6.797 6.797 0 0 1-1.627 1.677 9.267 9.267 0 0 1-.372 3.033 9.35 9.35 0 0 1-1.165 2.492 9.806 9.806 0 0 1-1.848 2.12c-.716.609-1.58 1.098-2.591 1.466a9.564 9.564 0 0 1-3.245.542 9.01 9.01 0 0 1-4.982-1.456c.234.027.495.04.783.04 1.507 0 2.85-.462 4.028-1.386a3.18 3.18 0 0 1-1.888-.643A3.2 3.2 0 0 1 2.22 8.148c.22.033.425.05.613.05.288 0 .572-.037.853-.11a3.224 3.224 0 0 1-1.868-1.115 3.167 3.167 0 0 1-.733-2.07v-.04c.455.255.944.392 1.466.412A3.24 3.24 0 0 1 1.497 4.12a3.161 3.161 0 0 1-.392-1.547c0-.59.147-1.135.442-1.637a9.273 9.273 0 0 0 2.953 2.4 9.123 9.123 0 0 0 3.737.995 3.604 3.604 0 0 1-.08-.744c0-.897.314-1.66.943-2.29a3.135 3.135 0 0 1 2.3-.954c.938 0 1.728.342 2.371 1.025a6.362 6.362 0 0 0 2.06-.784 3.15 3.15 0 0 1-1.427 1.788 6.464 6.464 0 0 0 1.868-.502Z" fill="#fff"/>
</svg><svg fill="none" viewBox="0 0 70 70" id="youtube" xmlns="http://www.w3.org/2000/svg">
    <rect width="70" height="70" rx="35" fill="#EA3223"/>
    <path d="M44.585 35.203c.346-.19.346-.502 0-.692l-14.821-8.236c-.346-.19-.625-.023-.625.368V43.07c0 .391.279.559.625.369l14.821-8.237Z" fill="#fff"/>
</svg></svg>